<svg width="15" height="15" fill="none" xmlns="http://www.w3.org/2000/svg"><path d="M9.484.018c-.731.04-1.388.21-2.07.535a5.255 5.255 0 0 0-1.101.704 6.6 6.6 0 0 0-.58.584 5.506 5.506 0 0 0-1.195 2.755 4.12 4.12 0 0 0-.038.666c0 .384.017.591.079.93a5.589 5.589 0 0 0 1.013 2.306c.603.798 1.465 1.401 2.489 1.743a5.2 5.2 0 0 0 1.152.244c.175.018.727.02.895.004a5.222 5.222 0 0 0 1.936-.554A4.868 4.868 0 0 0 14 8.235a5.511 5.511 0 0 0 .873-2.381 5.268 5.268 0 0 0-.438-2.77c-.42-.938-1.016-1.654-1.814-2.178a5.82 5.82 0 0 0-1.675-.737A5.157 5.157 0 0 0 9.484.018Zm.492.874c.454.032.906.136 1.33.308.962.39 1.651.983 2.134 1.834.498.879.689 1.818.567 2.791-.118.947-.608 1.942-1.27 2.581a4.18 4.18 0 0 1-1.108.77A4.293 4.293 0 0 1 10 9.625a6.046 6.046 0 0 1-.746-.013 4.376 4.376 0 0 1-1.393-.394 4.177 4.177 0 0 1-1.61-1.292A4.556 4.556 0 0 1 5.39 5.79c-.1-.82.033-1.63.39-2.398.454-.975 1.147-1.665 2.112-2.103A4.361 4.361 0 0 1 9.467.89c.092-.006.401-.005.509.003Z" fill="#E4DFD3"/><path d="M9.508 2.089a2.764 2.764 0 0 0-1.087.31c-.834.437-1.435 1.28-1.615 2.267-.04.226-.05.338-.05.625 0 .206.004.294.015.386.096.777.412 1.444.933 1.965.452.454.989.73 1.603.823.149.023.466.03.617.017a2.823 2.823 0 0 0 1.657-.742 3.204 3.204 0 0 0 .849-1.28l.014-.042-.046-.016a204.21 204.21 0 0 0-.882-.307c-.012-.002-.022.017-.054.096-.115.285-.27.52-.48.733-.476.476-1.104.663-1.712.509-.563-.143-1.05-.57-1.308-1.147a2.332 2.332 0 0 1-.21-1c0-.4.08-.743.256-1.089a2.11 2.11 0 0 1 .709-.808 1.75 1.75 0 0 1 1.73-.126c.196.093.362.213.53.383.123.123.235.263.307.385l.04.067.026-.015.418-.243c.217-.126.4-.233.408-.239.012-.008.008-.02-.05-.112-.444-.716-1.135-1.206-1.914-1.355a2.5 2.5 0 0 0-.478-.046l-.226.001Z" fill="#E4DFD3"/></svg>